<svg width="260" height="260" viewBox="0 0 260 260" fill="none" xmlns="http://www.w3.org/2000/svg">
<circle cx="130" cy="130" r="127" fill="white" stroke="black" stroke-width="6"/>
<ellipse cx="80" cy="98" rx="10" ry="14" fill="black"/>
<path d="M98.5 92C98.5 102.782 89.9816 111.5 79.5 111.5C69.0184 111.5 60.5 102.782 60.5 92C60.5 81.2184 69.0184 72.5 79.5 72.5C89.9816 72.5 98.5 81.2184 98.5 92Z" stroke="black"/>
<path d="M59 168C76 221 182 229 201 168" stroke="black" stroke-width="5"/>
<ellipse cx="176" cy="98" rx="10" ry="14" fill="black"/>
<path d="M194.5 92C194.5 102.782 185.982 111.5 175.5 111.5C165.018 111.5 156.5 102.782 156.5 92C156.5 81.2184 165.018 72.5 175.5 72.5C185.982 72.5 194.5 81.2184 194.5 92Z" stroke="black"/>
<path d="M127.744 70.2165C124.364 102.393 120.482 101.876 128.774 102.429C135.622 102.885 130.941 81.1439 127.744 70.2165Z" fill="#F48230"/>
<path d="M128.069 67C127.962 68.1069 127.853 69.1787 127.744 70.2165M127.744 70.2165C124.364 102.393 120.482 101.876 128.774 102.429C135.622 102.885 130.941 81.1439 127.744 70.2165Z" stroke="#F48230" stroke-width="5"/>
</svg>
